<svg id="Babbling_profile" xmlns="http://www.w3.org/2000/svg" xmlns:xlink="http://www.w3.org/1999/xlink" width="120" height="120" viewBox="0 0 120 120">
  <defs>
    <clipPath id="clip-path">
      <rect id="사각형_781" data-name="사각형 781" width="120" height="120" fill="none" stroke="#707070" stroke-width="1"/>
    </clipPath>
  </defs>
  <g id="Babbling_profile-2" data-name="Babbling_profile" clip-path="url(#clip-path)">
    <path id="패스_2130" data-name="패스 2130" d="M37.251,37.53a2.956,2.956,0,1,1-5.911,0" transform="translate(38.304 45.87)" fill="#232323"/>
    <path id="패스_2131" data-name="패스 2131" d="M53.4,93.716S9.737,107.249,7.159,62.938c0,0-2.956-28.622,35.556-41.733,0,0,13.756-4.867,13.111-14.244,0,0,.133,9.489,15.556,17.067,0,0,28.889,14.644,23.622,44.689,0,0-5,36.756-41.467,25" transform="translate(8.686 8.507)" fill="#fff"/>
    <path id="패스_2132" data-name="패스 2132" d="M66.915,96.408a44.6,44.6,0,0,1-13.333-2.222,55.555,55.555,0,0,1-14.222,1.933,32.844,32.844,0,0,1-20.444-6.111C11.781,84.541,7.8,75.5,7.092,63.164A34.244,34.244,0,0,1,10.448,47.1c3.711-8.089,12.333-19.133,32.267-25.911.133,0,13.333-4.867,12.933-13.822a1.379,1.379,0,0,1,0-.2.244.244,0,0,1,.156-.311.222.222,0,0,1,.267.222v.111c0,1.6,1.489,9.867,15.378,16.689A53.333,53.333,0,0,1,85.315,34.986,39.489,39.489,0,0,1,95.2,68.808a41.644,41.644,0,0,1-4.978,13.933A26.111,26.111,0,0,1,66.914,96.408M53.581,93.586h0a43.689,43.689,0,0,0,13.333,2.222c23.889,0,27.822-26.822,27.867-27.089A39.022,39.022,0,0,0,85,35.386,53.067,53.067,0,0,0,71.292,24.275C60.181,18.83,56.959,12.452,56,9.141,54.648,17.186,42.981,21.43,42.848,21.475,23.092,28.141,14.559,39.252,10.87,47.119A33.333,33.333,0,0,0,7.581,62.941c1.556,26.978,18,32.6,31.644,32.6a53.178,53.178,0,0,0,14.133-1.933h0" transform="translate(8.641 8.37)" stroke="#000" stroke-width="0.25"/>
    <path id="패스_2133" data-name="패스 2133" d="M43.464,37.058c1.378-1.578,4-2.222,4.978.133A9.133,9.133,0,0,1,46.887,45.3c-.8,1.156-1.622,2.622-3.289,2.444a2.867,2.867,0,0,1-2.222-3.2A17.244,17.244,0,0,1,42.8,38.014a5.667,5.667,0,0,1,.667-.956" transform="translate(50.536 43.564)" fill="#fff7f3"/>
    <path id="패스_2134" data-name="패스 2134" d="M44.019,48.128h-.311a2.578,2.578,0,0,1-1.756-1.044,3.244,3.244,0,0,1-.689-2.422,4.577,4.577,0,0,1,.156-1.444,13,13,0,0,1,1.289-5.2,6.29,6.29,0,0,1,.711-1,4.133,4.133,0,0,1,3-1.467A2.489,2.489,0,0,1,48.8,37.217a9.356,9.356,0,0,1-1.578,8.356l-.178.289c-.733,1.067-1.533,2.222-3.022,2.222m2.4-12.111A3.667,3.667,0,0,0,43.8,37.283a8.687,8.687,0,0,0-.667.911,12.622,12.622,0,0,0-1.2,5.022,4.155,4.155,0,0,1-.178,1.467,2.778,2.778,0,0,0,.6,2.044,2.067,2.067,0,0,0,1.422.844c1.378.156,2.111-.956,2.844-2.022l.2-.289a8.889,8.889,0,0,0,1.511-7.889,2,2,0,0,0-1.911-1.378" transform="translate(50.404 43.45)" stroke="rgba(0,0,0,0)" stroke-width="1"/>
    <path id="패스_2135" data-name="패스 2135" d="M42.584,37.614a2.556,2.556,0,0,1,1.267-1.2,1.689,1.689,0,0,1,2.067,1.133,4.622,4.622,0,0,1-.622,3.644c-.467.867-1.111,2.422-2.222,2.6a.778.778,0,0,1-.8-1.111c.244-.689,1.311-1,1.311-1.822a1,1,0,0,0-1.044-.911,3.6,3.6,0,0,1,0-2.222" transform="translate(51.571 44.43)" fill="#f1d3c7"/>
    <path id="패스_2136" data-name="패스 2136" d="M45.18,41.07a8.489,8.489,0,0,0,.533-1.2,3.689,3.689,0,0,0,0-2.444,1.667,1.667,0,0,0-2.044-1.111,2.689,2.689,0,0,0-1.289,1.2s3.511-2.222,2.733,3.556" transform="translate(51.798 44.308)" fill="#f4b49d"/>
    <path id="패스_2137" data-name="패스 2137" d="M13.038,34.871s-2.978-.889-2.511,4.444a24.845,24.845,0,0,0,.533,5.089,6.4,6.4,0,0,0,1.778,3.533c.756.622,2.489,1.311,3.356.644A4.444,4.444,0,0,0,17.327,46a10.622,10.622,0,0,0-.356-7.133,10.956,10.956,0,0,0-3.933-4" transform="translate(12.806 42.552)" fill="#fff7f3"/>
    <path id="패스_2138" data-name="패스 2138" d="M15.439,49.23h0a4.578,4.578,0,0,1-2.578-.956,6.667,6.667,0,0,1-1.867-3.689,25.911,25.911,0,0,1-.556-5.133,5.378,5.378,0,0,1,.822-4.089,1.978,1.978,0,0,1,2.044-.578h0a11.111,11.111,0,0,1,4.022,4.089,10.644,10.644,0,0,1,.378,7.311,1.2,1.2,0,0,0,0,.333A4.067,4.067,0,0,1,16.572,48.9a1.867,1.867,0,0,1-1.089.311M12.794,35.186a1.533,1.533,0,0,0-1.133.489,5.156,5.156,0,0,0-.667,3.733,25.689,25.689,0,0,0,.533,5.044,6.244,6.244,0,0,0,1.689,3.4,3.978,3.978,0,0,0,2.222.867,1.422,1.422,0,0,0,.8-.222,3.778,3.778,0,0,0,.933-2.089c0-.133,0-.244,0-.356a10.489,10.489,0,0,0-.333-6.956,10.511,10.511,0,0,0-3.711-3.733H12.75" transform="translate(12.628 42.414)" stroke="rgba(0,0,0,0)" stroke-width="1"/>
    <path id="패스_2139" data-name="패스 2139" d="M13.5,37.052a2.222,2.222,0,0,0-.867-1.244c-.622-.356-1.311.244-1.556,1.044a6.244,6.244,0,0,0,.267,3.667c.311.889.689,2.467,1.533,2.667.467,0,.733-.489.622-1.067s-.911-1.044-.867-1.867c0,0,0-.889.8-.867a4.822,4.822,0,0,0,0-2.222" transform="translate(13.345 43.637)" fill="#f1d3c7"/>
    <path id="패스_2140" data-name="패스 2140" d="M11.334,40.4a6.667,6.667,0,0,1-.311-1.222,4.955,4.955,0,0,1,0-2.422c.244-.8.933-1.4,1.556-1.067a2.422,2.422,0,0,1,.889,1.244S11,34.558,11.245,40.4" transform="translate(13.288 43.508)" fill="#f4b49d"/>
    <path id="패스_2141" data-name="패스 2141" d="M78.889,58.711c0,9.889-4.444,16.133-11.111,19.756-5.844,3.089-13.533,2-21.978,2-8.111,0-15.556,1.178-21.311-1.644-7.267-3.578-11.889-9.889-11.889-20,0-6.667.378-16.089,3.711-22.556A33.822,33.822,0,0,1,45.689,17.8,33.956,33.956,0,0,1,75.356,36.533c3.222,6.356,3.533,15.689,3.533,22.222" transform="translate(15.4 21.756)" fill="#fff7f3"/>
    <path id="패스_2142" data-name="패스 2142" d="M35.307,81.09a24.6,24.6,0,0,1-10.844-1.911C16.484,75.246,12.44,68.4,12.44,58.846c0-6.667.378-16.156,3.733-22.667A33.933,33.933,0,0,1,45.884,17.69,34.022,34.022,0,0,1,75.773,36.557c3.156,6.244,3.556,15.178,3.556,22.222,0,9.267-3.8,16-11.333,20A25.956,25.956,0,0,1,55.929,81H45.884c-1.8,0-3.756,0-5.578.133s-3.378,0-5,0M45.884,17.957A33.746,33.746,0,0,0,16.618,36.446c-3.311,6.422-3.689,15.889-3.689,22.444,0,9.356,3.956,16.044,11.756,19.889a24.178,24.178,0,0,0,10.622,1.867c1.6,0,3.244,0,5-.133s3.667-.133,5.578-.133H55.929a25.2,25.2,0,0,0,11.822-2.222c7.356-3.889,11.111-10.467,11.111-19.533,0-7.044-.4-15.911-3.511-22.067a33.533,33.533,0,0,0-29.444-18.6" transform="translate(15.204 21.621)" stroke="#000" stroke-width="0.25"/>
    <path id="패스_2146" data-name="패스 2146" d="M31.273,43.679h-.111a5.667,5.667,0,0,0-4.178,0,.25.25,0,0,1-.178-.467,5.933,5.933,0,0,1,4.578,0,.222.222,0,0,1,0,.333.244.244,0,0,1-.222.133" transform="translate(32.571 52.254)" stroke="rgba(0,0,0,0)" stroke-width="1"/>
    <path id="패스_2147" data-name="패스 2147" d="M19.622,35h0a.244.244,0,0,1-.133-.311c0-.156,1.556-3.511,3.822-3.622,1.333,0,2.578,1.022,3.756,3.2a.267.267,0,0,1-.111.356.244.244,0,0,1-.333,0c-1.067-2-2.222-2.978-3.289-2.933-1.956,0-3.378,3.267-3.378,3.311a.244.244,0,0,1-.244.133" transform="translate(23.8 37.974)" fill="#232323" stroke="rgba(0,0,0,0)" stroke-width="1"/>
    <path id="패스_2148" data-name="패스 2148" d="M32.436,32.1h0a.222.222,0,0,1-.133-.311c0-.156,1.556-3.511,3.8-3.622,1.356,0,2.6,1.022,3.778,3.2a.267.267,0,0,1,0,.356.244.244,0,0,1-.333-.111c-1.089-2-2.222-2.978-3.311-2.933-1.933,0-3.356,3.267-3.378,3.311a.2.2,0,0,1-.222.133" transform="translate(39.453 34.43)" fill="#232323" stroke="rgba(0,0,0,0)" stroke-width="1"/>
    <path id="패스_2149" data-name="패스 2149" d="M28.037,29.459a6.022,6.022,0,0,1-2.844-4.444,5.222,5.222,0,0,1,3.111-5c3-1.178,4.267,1.444,6.667,2.333,0,0,2.778,1.044,2.956-2.422,0,.2,1.156,1.222,1.311,1.511a5.311,5.311,0,0,1,.756,2.711c0,6.667-7.2,8.689-11.933,5.356" transform="translate(30.785 24.097)" fill="#776140" stroke="#000" stroke-linecap="round" stroke-linejoin="round" stroke-width="0.5"/>
    <path id="패스_2150" data-name="패스 2150" d="M37.667,33.42a6.667,6.667,0,1,0,6.667,6.667,6.667,6.667,0,0,0-6.667-6.667" transform="translate(37.889 40.847)" stroke="#000" stroke-width="0.25"/>
    <path id="패스_2151" data-name="패스 2151" d="M40.718,36.143A5.933,5.933,0,0,1,41.9,40.454,3.956,3.956,0,0,1,39.518,43.7a3.6,3.6,0,0,1-1.444.178c-.778-.156-1.2-.933-1.578-1.556s-.711-1.133-1.089-1.667c-1.089-1.467-3.422-1.378-3.111-3.8a3.489,3.489,0,0,1,1.6-2.4,5.044,5.044,0,0,1,6.889,1.689" transform="translate(39.438 41.235)" fill="#fff"/>
    <path id="패스_2152" data-name="패스 2152" d="M32.122,38.87a2.356,2.356,0,0,1-.622-1.556A1.511,1.511,0,0,1,32.256,36a1.355,1.355,0,0,1,.533-.133c.289,0,.467.311.644.511a6.111,6.111,0,0,0,.489.578c.444.511,1.311.378,1.311,1.289a1.356,1.356,0,0,1-.467.956,1.911,1.911,0,0,1-2.644-.333" transform="translate(38.5 43.841)" fill="#fff"/>
    <path id="패스_2153" data-name="패스 2153" d="M25.077,33.42a6.667,6.667,0,1,0,6.667,6.667,6.667,6.667,0,0,0-6.667-6.667" transform="translate(22.501 40.847)" stroke="#000" stroke-width="0.25"/>
    <path id="패스_2154" data-name="패스 2154" d="M28.087,36.143a5.8,5.8,0,0,1,1.133,4.311A3.889,3.889,0,0,1,27,43.7a3.6,3.6,0,0,1-1.444.178c-.778-.156-1.2-.933-1.578-1.556a19.727,19.727,0,0,0-1.111-1.667c-1.067-1.467-3.4-1.378-3.111-3.8a3.6,3.6,0,0,1,1.556-2.4A5.044,5.044,0,0,1,28.2,36.143" transform="translate(24.113 41.235)" fill="#fff"/>
    <path id="패스_2155" data-name="패스 2155" d="M19.542,38.87a2.222,2.222,0,0,1-.622-1.556A1.511,1.511,0,0,1,19.653,36a1.578,1.578,0,0,1,.533-.133c.289,0,.489.311.667.511l.467.578c.467.511,1.333.378,1.311,1.289a1.289,1.289,0,0,1-.467.956,1.867,1.867,0,0,1-2.622-.333" transform="translate(23.124 43.841)" fill="#fff"/>
    <path id="패스_2156" data-name="패스 2156" d="M17.17,39.526s8.267-3.556,13.333,1.8" transform="translate(20.986 46.896)" fill="#fff7f3"/>
    <path id="패스_2157" data-name="패스 2157" d="M45.523,39.526s-8.267-3.556-13.333,1.8" transform="translate(39.343 46.896)" fill="#fff7f3"/>
    <path id="패스_2143" data-name="패스 2143" d="M41.193,39.28c-6.244,0-11.267,2.222-11.111,4.711s5.156,4.444,11.378,4.289,11.267-2.222,11.222-4.711-5-4.289-10.956-4.289h-.533" transform="translate(36.763 47.72)" fill="#f7b394"/>
    <path id="패스_2144" data-name="패스 2144" d="M14,43.714c0,2.489,5.022,4.444,11.267,4.578S36.578,46.359,36.6,43.848,31.578,39.4,25.333,39.27h-.222C18.956,39.27,14,41.248,14,43.714" transform="translate(17.111 47.73)" fill="#f7b394"/>
    <path id="패스_2145" data-name="패스 2145" d="M27.383,43.9h-.222a3.778,3.778,0,0,1-2.6-.956,2.089,2.089,0,0,1-.533-1.644.222.222,0,0,1,.267-.222c.133,0,.222,0,.222.267a1.733,1.733,0,0,0,.4,1.267,3.311,3.311,0,0,0,2.222.778,6.667,6.667,0,0,0,4.822-2.222.2.2,0,0,1,.156,0h0a.222.222,0,0,1,.222,0,6.667,6.667,0,0,0,4.822,2.222,3.311,3.311,0,0,0,2.222-.8,1.6,1.6,0,0,0,.422-1.267.267.267,0,0,1,.244-.267.244.244,0,0,1,.244.244,2.044,2.044,0,0,1-.533,1.622,3.689,3.689,0,0,1-2.622.956,6.956,6.956,0,0,1-5.022-2.222,7.2,7.2,0,0,1-4.844,2.222" transform="translate(29.35 50.184)" stroke="rgba(0,0,0,0)" stroke-width="1"/>
  </g>
</svg>
