<svg id="Follow_minus_5_green" data-name="Follow minus_5_green" xmlns="http://www.w3.org/2000/svg" xmlns:xlink="http://www.w3.org/1999/xlink" width="24" height="24" viewBox="0 0 24 24">
  <defs>
    <clipPath id="clip-path">
      <rect id="사각형_1050" data-name="사각형 1050" width="24" height="24" fill="none"/>
    </clipPath>
  </defs>
  <g id="Follow_minus_5_green-2" data-name="Follow minus_5_green" clip-path="url(#clip-path)">
    <g id="그룹_762-2" data-name="그룹 762-2">
      <path id="패스_2840" data-name="패스 2840" d="M15.49,19.85a.6.6,0,0,1-.61-.6v-3a2.61,2.61,0,0,0-2.61-2.62H5.82a2.61,2.61,0,0,0-2.61,2.62v3a.61.61,0,0,1-1.21,0v-3a3.83,3.83,0,0,1,3.82-3.83h6.45a3.83,3.83,0,0,1,3.82,3.83v3A.6.6,0,0,1,15.49,19.85Z" fill="#2fd379"/>
      <path id="패스_2841" data-name="패스 2841" d="M9.05,11.8A3.83,3.83,0,1,1,12.87,8a3.83,3.83,0,0,1-3.82,3.8Zm0-6.44a2.61,2.61,0,1,0,1.856.775A2.62,2.62,0,0,0,9.05,5.36Z" fill="#2fd379"/>
    </g>
    <path id="패스_2842" data-name="패스 2842" d="M19,11.33h2.23a.74.74,0,1,0,0-1.48H15.32a.74.74,0,0,0,0,1.48Z" fill="#2fd379"/>
  </g>
</svg>
