<svg xmlns="http://www.w3.org/2000/svg" width="198.354" height="49.626" viewBox="0 0 198.354 49.626">
  <g id="그룹_806" data-name="그룹 806" transform="translate(-105.326 -358.454)">
    <path id="패스_1095" data-name="패스 1095" d="M132.938,393.4a9.609,9.609,0,0,1-1.825,5.854,10.182,10.182,0,0,1-5.476,3.582q-.965.274-1.928.448a24.008,24.008,0,0,1-2.411.275q-1.446.1-3.513.138t-5.234.034a12.862,12.862,0,0,1-3.168-.31,3.709,3.709,0,0,1-1.791-.964,3.607,3.607,0,0,1-.861-1.756,21.345,21.345,0,0,1-.379-2.686q-.759-7.369-.93-14.808t-.034-15.014a8.1,8.1,0,0,1,.275-2.376,2.683,2.683,0,0,1,.827-1.309,2.9,2.9,0,0,1,1.377-.585q.827-.137,2-.275,1.583-.137,2.652-.207t2.445-.069q8.609,0,12.535,2.548a8.516,8.516,0,0,1,4.132,7.094,15.172,15.172,0,0,1-.861,6.2,9.819,9.819,0,0,1-3.271,4.2,7.579,7.579,0,0,1,4.236,3.857A14.546,14.546,0,0,1,132.938,393.4ZM113.584,379.56h3.237a8.26,8.26,0,0,0,3.2-.516,5.667,5.667,0,0,0,1.894-1.24,3.477,3.477,0,0,0,.9-1.55,6.28,6.28,0,0,0,.206-1.515,5.311,5.311,0,0,0-.138-1,2.347,2.347,0,0,0-.792-1.24,5.8,5.8,0,0,0-1.929-1.033,10.2,10.2,0,0,0-3.547-.379h-1.205c-.161,0-.379.012-.654.034s-.644.058-1.1.1q0,.759-.035,1.825t-.034,1.825Zm.413,9.16q.137,2,.241,3.478t.379,3.478q1.514,0,2.789-.034t2.79-.034a3.609,3.609,0,0,0,2.893-1.136,3.444,3.444,0,0,0,.827-2.1,3.059,3.059,0,0,0-1.584-2.927,8.879,8.879,0,0,0-4.408-.792Z" transform="translate(0 -3.52)" fill="#fff"/>
    <path id="패스_1096" data-name="패스 1096" d="M223.179,428.12a14.335,14.335,0,0,1-5.682-.62,9.4,9.4,0,0,1-3.719-2.307,8.76,8.76,0,0,1-2.032-3.409,11.2,11.2,0,0,1-.551-3.857,8.584,8.584,0,0,1,1.515-4.959,10.081,10.081,0,0,1,3.719-3.134,16.106,16.106,0,0,1,5.1-1.515,27.4,27.4,0,0,1,5.648-.172,5.166,5.166,0,0,0-.792-1.825q-.586-.86-2.858-.93a9.894,9.894,0,0,0-2.686.206,16.774,16.774,0,0,0-2.755.964,3.551,3.551,0,0,1-3.272.172,5.261,5.261,0,0,1-2.032-2.1,3.324,3.324,0,0,1-.344-2.2,3.919,3.919,0,0,1,1.584-2.273,14.669,14.669,0,0,1,3.719-2,14.5,14.5,0,0,1,4.821-.689,16,16,0,0,1,5.372.792,10.108,10.108,0,0,1,5.854,5.028,14.133,14.133,0,0,1,1.205,3.271,18.1,18.1,0,0,1,.448,3.237q.067,1.585.069,2.686,0,.966-.035,2.2a15.7,15.7,0,0,1-.31,2.617q.551.965,1.205,1.928t1.343,1.929a4.038,4.038,0,0,1,.792,3.547,4.082,4.082,0,0,1-2.1,2.445,3.677,3.677,0,0,1-3.03.413,5.185,5.185,0,0,1-2.479-2.066,13.563,13.563,0,0,1-3.237,1.756A14.513,14.513,0,0,1,223.179,428.12Zm-4.27-9.849a2.019,2.019,0,0,0,.792,1.619,4.327,4.327,0,0,0,2.721.654,5.275,5.275,0,0,0,3.512-1.1q1.307-1.1,1.584-3.995-.689-.067-2.1-.1a13.565,13.565,0,0,0-2.858.241,8.352,8.352,0,0,0-2.548.9A1.953,1.953,0,0,0,218.909,418.271Z" transform="translate(-75.71 -27.904)" fill="#fff"/>
    <path id="패스_1097" data-name="패스 1097" d="M339.166,386.249a13.24,13.24,0,0,1-5.854,11.227,18.739,18.739,0,0,1-5.958,2.651,27.644,27.644,0,0,1-6.922.861q-2.893,0-3.823-1a5.263,5.263,0,0,1-1.136-3.134q-.345-3.1-.62-7.507t-.448-9.2q-.173-4.786-.241-9.47t.069-8.334a2.783,2.783,0,0,1,1.274-2.411,5.147,5.147,0,0,1,3-.689,5.667,5.667,0,0,1,2.445.689,2.494,2.494,0,0,1,1.136,2.411v9.16a24.94,24.94,0,0,1,6.749.482,13.727,13.727,0,0,1,5.476,2.445,11.813,11.813,0,0,1,3.616,4.683A16.76,16.76,0,0,1,339.166,386.249Zm-7.92-.551a6.738,6.738,0,0,0-.517-3.409,4.949,4.949,0,0,0-1.894-2.1,8.029,8.029,0,0,0-2.893-1.033,14.3,14.3,0,0,0-3.444-.138q.138,3.512.241,7.128t.241,7.266a15.333,15.333,0,0,0,2.927-.551,7.811,7.811,0,0,0,2.548-1.274,6.873,6.873,0,0,0,1.894-2.273A8.809,8.809,0,0,0,331.245,385.7Z" transform="translate(-149.34 -0.565)" fill="#fff"/>
    <path id="패스_1098" data-name="패스 1098" d="M439.758,386.249a13.241,13.241,0,0,1-5.854,11.227,18.743,18.743,0,0,1-5.958,2.651,27.645,27.645,0,0,1-6.922.861q-2.893,0-3.823-1a5.261,5.261,0,0,1-1.136-3.134q-.346-3.1-.62-7.507t-.448-9.2q-.173-4.786-.241-9.47t.069-8.334a2.783,2.783,0,0,1,1.274-2.411,5.146,5.146,0,0,1,3-.689,5.667,5.667,0,0,1,2.445.689,2.494,2.494,0,0,1,1.136,2.411v9.16a24.941,24.941,0,0,1,6.75.482,13.728,13.728,0,0,1,5.476,2.445,11.814,11.814,0,0,1,3.616,4.683A16.76,16.76,0,0,1,439.758,386.249Zm-7.921-.551a6.744,6.744,0,0,0-.517-3.409,4.949,4.949,0,0,0-1.894-2.1,8.031,8.031,0,0,0-2.893-1.033,14.3,14.3,0,0,0-3.444-.138q.137,3.512.241,7.128t.241,7.266a15.332,15.332,0,0,0,2.927-.551,7.814,7.814,0,0,0,2.548-1.274,6.88,6.88,0,0,0,1.894-2.273A8.816,8.816,0,0,0,431.838,385.7Z" transform="translate(-221.281 -0.565)" fill="#fff"/>
    <path id="패스_1099" data-name="패스 1099" d="M511.113,364.194a5.617,5.617,0,0,1-.1-2.2,5.215,5.215,0,0,1,.585-1.688,3.5,3.5,0,0,1,1.068-1.171,3.639,3.639,0,0,1,1.412-.585,4.163,4.163,0,0,1,3.1.585,5.159,5.159,0,0,1,2.2,3.409,73.894,73.894,0,0,1,1.343,7.37q.585,4.271,1,8.781t.62,8.782q.206,4.271.207,7.3a4.317,4.317,0,0,1-1.309,3.582,5.341,5.341,0,0,1-2.893,1.171,3.963,3.963,0,0,1-2.927-.9,4.281,4.281,0,0,1-1.274-3.513q0-2.687-.276-6.784t-.689-8.506q-.413-4.407-.964-8.575T511.113,364.194Z" transform="translate(-290.089 0)" fill="#fff"/>
    <path id="패스_1100" data-name="패스 1100" d="M567.21,363.375a5.251,5.251,0,0,1,3.478,1.24q1.48,1.24,1.481,4.339a4.738,4.738,0,0,1-1.446,3.754,5.942,5.942,0,0,1-4.063,1.274,3.877,3.877,0,0,1-3.1-1.481,6.31,6.31,0,0,1-1.24-4.167,4.975,4.975,0,0,1,1.343-3.512A4.61,4.61,0,0,1,567.21,363.375Zm-3.719,18.665a5.751,5.751,0,0,1,.9-3.891A3.83,3.83,0,0,1,567,376.6a5.7,5.7,0,0,1,1.618.1,4.112,4.112,0,0,1,1.618.723,4.74,4.74,0,0,1,1.274,1.412,5.162,5.162,0,0,1,.654,2.1q.274,3.512.413,5.785t.241,4.064q.1,1.792.1,3.513t-.069,4.27q-.07,2.549-1.412,3.512a4.916,4.916,0,0,1-2.927.964,4.576,4.576,0,0,1-3-.93q-1.343-1-1.412-3.823,0-2.479-.069-4.339t-.138-3.616q-.069-1.756-.172-3.685T563.491,382.04Z" transform="translate(-326.832 -3.52)" fill="#fff"/>
    <path id="패스_1101" data-name="패스 1101" d="M611.4,404.164a6.026,6.026,0,0,1,.482-3.891,3.54,3.54,0,0,1,2.341-1.756,4.485,4.485,0,0,1,2.376.241,3.811,3.811,0,0,1,1.963,1.756,22.879,22.879,0,0,1,6.061-.585,14.987,14.987,0,0,1,5.854,1.343,11.109,11.109,0,0,1,4.477,3.788,12.248,12.248,0,0,1,1.928,6.75,40.717,40.717,0,0,1-.241,6.44q-.379,3.272-1,6.164a4.943,4.943,0,0,1-1.585,2.893,4.014,4.014,0,0,1-3.1.757,3.5,3.5,0,0,1-2.927-1.584,5.187,5.187,0,0,1-.517-3.375q.344-2.893.792-5.786a26.751,26.751,0,0,0,.241-5.923,2.793,2.793,0,0,0-.827-1.86,5.488,5.488,0,0,0-1.894-1.205,8.814,8.814,0,0,0-2.617-.551,14.613,14.613,0,0,0-3,.1q.274,1.929.448,3.513t.241,3.306q.068,1.723.1,3.685t.034,4.649A4.982,4.982,0,0,1,620,426.617a4.075,4.075,0,0,1-2.617,1.171,4.685,4.685,0,0,1-3-.723q-1.343-.86-1.412-3.685-.069-2.616-.138-4.684t-.241-4.132q-.172-2.066-.482-4.511T611.4,404.164Z" transform="translate(-361.857 -28.605)" fill="#fff"/>
    <path id="패스_1102" data-name="패스 1102" d="M723.261,430.193a4.89,4.89,0,0,0,3.34-1.446,6.98,6.98,0,0,0,1.894-3.65,15.845,15.845,0,0,1-4.615.757,11.376,11.376,0,0,1-5.028-1.068,10.631,10.631,0,0,1-3.684-2.893,13.072,13.072,0,0,1-2.273-4.27,16.76,16.76,0,0,1-.792-5.2,14.129,14.129,0,0,1,.792-4.683,11.976,11.976,0,0,1,2.342-4.029,11.284,11.284,0,0,1,3.788-2.789,12.29,12.29,0,0,1,5.2-1.033,13.78,13.78,0,0,1,6.819,1.481,10.612,10.612,0,0,1,4.029,3.891,15.558,15.558,0,0,1,1.894,5.544,37.862,37.862,0,0,1,.413,6.509,45.388,45.388,0,0,1-.792,7.611,19.85,19.85,0,0,1-2.549,6.784,13.118,13.118,0,0,1-4.856,4.649,13.263,13.263,0,0,1-7.714,1.274,10.964,10.964,0,0,1-2.514-.448,19.021,19.021,0,0,1-2.48-.93,11.771,11.771,0,0,1-2.169-1.274,6.4,6.4,0,0,1-1.515-1.55,5.352,5.352,0,0,1-1.033-3.03,3.421,3.421,0,0,1,1.928-2.755,2.869,2.869,0,0,1,2.514-.344,5.5,5.5,0,0,1,2.307,1.378,5,5,0,0,0,2.032,1.171A7.591,7.591,0,0,0,723.261,430.193ZM725.12,418a6.419,6.419,0,0,0,1.963-.344,23.215,23.215,0,0,0,2.307-.9q0-1.447-.035-2.962a9.763,9.763,0,0,0-.447-2.789,5.362,5.362,0,0,0-1.309-2.169,3.942,3.942,0,0,0-2.548-1.033,3.9,3.9,0,0,0-3.547,1.171,5.156,5.156,0,0,0-1.343,3.651q0,3.1,1.515,4.236A5.589,5.589,0,0,0,725.12,418Z" transform="translate(-433.708 -29.634)" fill="#fff"/>
  </g>
</svg>
